HIERARCHY
ROOT Bip001_Pelvis
{
  OFFSET 34.4345 95.6767 -26.8758
  CHANNELS 6 Xposition Yposition Zposition Zrotation Xrotation Yrotation
  JOINT Bip001_Spine
  {
    OFFSET 1.4188e-005 10.2191 -0.0116013
    CHANNELS 3 Zrotation Xrotation Yrotation
    JOINT Bip001_L_Thigh
    {
      OFFSET 11.0458 -10.2192 0.0116197
      CHANNELS 3 Zrotation Xrotation Yrotation
      JOINT Bip001_L_Calf
      {
        OFFSET -0.707118 -44.0221 0.360014
        CHANNELS 3 Zrotation Xrotation Yrotation
        JOINT Bip001_L_Foot
        {
          OFFSET -0.651902 -40.5938 -3.56146
          CHANNELS 3 Zrotation Xrotation Yrotation
          JOINT Bip001_L_Toe0
          {
            OFFSET 0.0530839 -10.2181 13.1504
            CHANNELS 3 Zrotation Xrotation Yrotation
            End Site
            {
              OFFSET -1.02532e-005 0 7.55606
            }
          }
        }
      }
    }
    JOINT Bip001_R_Thigh
    {
      OFFSET -11.0458 -10.2191 0.0115893
      CHANNELS 3 Zrotation Xrotation Yrotation
      JOINT Bip001_R_Calf
      {
        OFFSET 0.706994 -44.0221 0.35984
        CHANNELS 3 Zrotation Xrotation Yrotation
        JOINT Bip001_R_Foot
        {
          OFFSET 0.651786 -40.5938 -3.5613
          CHANNELS 3 Zrotation Xrotation Yrotation
          JOINT Bip001_R_Toe0
          {
            OFFSET -0.0531479 -10.2181 13.1504
            CHANNELS 3 Zrotation Xrotation Yrotation
            End Site
            {
              OFFSET -1.02894e-005 0 7.55606
            }
          }
        }
      }
    }
    JOINT Bip001_Spine1
    {
      OFFSET 1.87041e-005 14.5736 1.08638
      CHANNELS 3 Zrotation Xrotation Yrotation
      JOINT Bip001_Spine2
      {
        OFFSET 2.24614e-005 14.5058 -1.69078
        CHANNELS 3 Zrotation Xrotation Yrotation
        JOINT Bip001_Neck
        {
          OFFSET 2.20278e-005 15.3945 -0.489414
          CHANNELS 3 Zrotation Xrotation Yrotation
          JOINT Bip001_L_Clavicle
          {
            OFFSET 6.06036 -0.000579998 0.00836775
            CHANNELS 3 Zrotation Xrotation Yrotation
            JOINT Bip001_L_UpperArm
            {
              OFFSET 11.5509 -0.0600302 0.00193952
              CHANNELS 3 Zrotation Xrotation Yrotation
              JOINT Bip001_L_Forearm
              {
                OFFSET 25.9523 0.0806089 -2.15551
                CHANNELS 3 Zrotation Xrotation Yrotation
                JOINT Bip001_L_Hand
                {
                  OFFSET 32.2475 0.153767 1.63968
                  CHANNELS 3 Zrotation Xrotation Yrotation
                  JOINT Bip001_L_Finger0
                  {
                    OFFSET 6.04639 -2.20976 5.90322
                    CHANNELS 3 Zrotation Xrotation Yrotation
                    End Site
                    {
                      OFFSET 4.22375 -1.43895 0.606485
                    }
                  }
                  JOINT Bip001_L_Finger1
                  {
                    OFFSET 11.0826 -0.704819 -0.198153
                    CHANNELS 3 Zrotation Xrotation Yrotation
                    End Site
                    {
                      OFFSET 6.20027 -0.397518 -0.0787166
                    }
                  }
                }
              }
            }
          }
          JOINT Bip001_R_Clavicle
          {
            OFFSET -6.06037 -0.000563197 0.00835105
            CHANNELS 3 Zrotation Xrotation Yrotation
            JOINT Bip001_R_UpperArm
            {
              OFFSET -11.5509 -0.0599978 0.00190698
              CHANNELS 3 Zrotation Xrotation Yrotation
              JOINT Bip001_R_Forearm
              {
                OFFSET -25.9523 0.0806822 -2.15589
                CHANNELS 3 Zrotation Xrotation Yrotation
                JOINT Bip001_R_Hand
                {
                  OFFSET -32.2475 0.153859 1.63989
                  CHANNELS 3 Zrotation Xrotation Yrotation
                  JOINT Bip001_R_Finger0
                  {
                    OFFSET -6.04641 -2.20976 5.90317
                    CHANNELS 3 Zrotation Xrotation Yrotation
                    End Site
                    {
                      OFFSET -4.22376 -1.43895 0.60647
                    }
                  }
                  JOINT Bip001_R_Finger1
                  {
                    OFFSET -11.0826 -0.704794 -0.198182
                    CHANNELS 3 Zrotation Xrotation Yrotation
                    End Site
                    {
                      OFFSET -6.20028 -0.397504 -0.0787333
                    }
                  }
                }
              }
            }
          }
          JOINT Bip001_Head
          {
            OFFSET 1.09673e-005 11.2744 2.05948
            CHANNELS 3 Zrotation Xrotation Yrotation
            End Site
            {
              OFFSET 2.89576e-005 20.8808 -2.77728e-005
            }
          }
        }
      }
    }
  }
}
MOTION
Frames:	12
Frame Time:	0.04
34.5393 95.5942 -29.0186 -0.827586 1.22901 1.17922 -0.183129 1.9528 -0.371373 6.30601 -5.54206 7.57551 -0.519165 12.7797 1.15588 1.8363 -7.4574 0.0511544 1.72484 -4.56611 -1.06083 -3.70265 -3.34555 -1.58664 0.704842 8.99497 -1.44368 -6.43926 -7.54734 -2.85932 2.75715 -9.66507 3.5968 -0.353866 3.90668 -0.73715 -0.353864 3.9067 -0.737149 2.98508 -5.2751 1.23134 -26.3244 7.47577 -2.69449 -54.428 35.9489 6.539 13.2137 -4.04191 -25.9235 7.54135 0.620886 -3.55619 -3.18055e-015 -6.36111e-015 -1.59028e-015 -4.77083e-015 3.18056e-015 -3.18055e-015 20.934 10.7327 14.2276 22.922 -41.033 -40.5162 -59.5576 -9.51722 96.1931 -42.3697 -6.96188 5.29201 3.18055e-015 4.77083e-015 3.18055e-015 -4.41391e-031 7.95139e-015 3.18055e-015 -3.89225 2.08625 2.8683 
34.5565 95.5243 -28.931 -0.965633 0.936618 2.13647 -0.216053 1.95248 -0.259965 6.45802 -5.73737 7.57034 -0.369006 13.434 -0.108001 2.52542 -7.41371 0.0557404 1.87941 -4.99045 -1.14423 -3.55494 -2.84363 -1.51876 0.906577 9.0472 -1.63448 -6.65123 -7.57505 -3.70241 2.75759 -9.67458 3.60379 -0.423604 3.90589 -0.512999 -0.423604 3.90589 -0.513 3.12021 -5.44034 1.33235 -26.5291 7.71358 -2.84154 -54.1372 36.0294 6.88319 13.1442 -5.07936 -26.5639 7.5864 0.674621 -3.30263 -1.59028e-015 6.36111e-015 -6.36111e-015 -3.18055e-015 1.27222e-014 -6.36111e-015 20.5529 11.0587 14.9027 20.77 -44.5284 -37.3732 -57.2001 -11.5399 98.0136 -43.4739 -6.98429 5.3638 6.36111e-015 -1.59028e-015 1.59028e-015 3.18055e-015 0 -0 -3.93569 2.31931 3.01205 
34.4473 95.4459 -28.8586 -1.2313 0.799413 2.82484 -0.209332 1.89521 0.00358083 6.79652 -6.10294 8.71682 0.0672879 14.3075 -2.44851 2.98349 -7.55809 0.0607651 1.92626 -5.27317 -1.13885 -3.13952 -2.58815 -1.47172 0.893229 9.25423 -1.77845 -6.90512 -7.59977 -4.42989 2.82545 -9.80017 3.56087 -0.418238 3.79039 0.0139987 -0.418239 3.79039 0.0139979 3.4188 -5.93307 0.910892 -27.1207 8.05504 -2.48915 -53.8291 36.5157 7.16205 13.4585 -5.58465 -26.753 7.51832 0.383064 -3.28724 1.59028e-015 9.54166e-015 -3.18055e-015 3.18055e-015 6.36111e-015 -0 19.4162 11.7478 15.8691 21.3254 -47.9215 -31.761 -54.6587 -13.1332 99.4347 -42.3487 -6.59356 4.75967 -0 0 1.59028e-015 -6.36111e-015 0 -0 -4.3794 2.87512 2.79055 
34.3081 95.3883 -28.9049 -1.67222 0.871341 4.51964 -0.137947 1.82021 0.134981 7.26418 -7.17565 7.00202 -0.0730175 15.531 -2.58832 3.11808 -7.7808 0.0732686 1.93123 -5.31608 -1.16727 -2.60833 -2.30923 -1.85679 0.984735 9.12341 -1.9641 -7.28083 -7.36726 -5.51413 2.90602 -9.96252 3.53257 -0.280422 3.64009 0.275682 -0.277738 3.64011 0.275041 3.11373 -6.93568 0.320005 -27.1604 8.78067 -1.7809 -53.1344 37.1988 6.68706 13.2192 -6.51287 -26.8503 7.47395 0.912021 -2.86506 1.76556e-031 -3.18055e-015 3.18055e-015 -0 0 3.18055e-015 18.9413 13.075 17.2541 23.2828 -50.8871 -24.2457 -53.6367 -14.4505 100.082 -40.9118 -5.84942 4.44196 -0 0 1.59028e-015 -3.18055e-015 -1.59028e-015 7.95139e-016 -3.9905 3.72997 2.05107 
34.149 95.3611 -29.02 -2.1292 1.11784 6.48015 -0.08366 1.72108 0.311449 7.78022 -8.36908 4.34741 -0.663307 16.3759 -1.99042 3.19464 -7.8939 0.0729476 1.88143 -5.30869 -1.10001 -2.04079 -2.13839 -2.2607 1.1066 8.8048 -2.12258 -7.71914 -6.95508 -6.87185 2.93914 -10.0372 3.53762 -0.176317 3.4417 0.62472 -0.179456 3.44169 0.625329 3.67244 -7.54031 -0.50009 -27.7868 9.13401 -1.47826 -52.5377 37.4987 5.96488 13.1363 -6.88729 -26.3558 7.61795 0.780465 -2.6071 -0 -3.18055e-015 -0 -1.59028e-015 -6.36111e-015 3.18055e-015 17.1594 14.0822 19.3308 27.5502 -52.4734 -14.4319 -52.7559 -15.1958 99.9332 -40.1977 -5.40792 4.46047 -3.18055e-015 0 -1.98785e-016 0 0 -0 -4.54924 4.17505 1.53759 
34.0542 95.3495 -29.0548 -2.09614 1.35512 8.27103 -0.111751 1.62154 0.539804 7.6591 -9.0329 3.19355 -0.620308 16.4204 -2.90451 3.16541 -7.71873 0.0678862 1.84181 -5.29415 -1.07128 -1.96899 -2.04438 -2.42744 1.32712 8.82545 -2.28 -8.18397 -6.77486 -8.36659 2.97456 -10.1253 3.54181 -0.23831 3.24197 1.08348 -0.239282 3.24196 1.08344 3.98695 -8.23039 -1.25528 -28.241 9.57747 -1.15462 -52.0294 37.1953 5.55617 13.1937 -6.71109 -26.4222 7.66443 0.700507 -2.3319 1.59028e-015 3.18055e-015 -0 -1.59028e-015 9.54167e-015 -0 14.7295 14.842 21.229 34.2751 -50.9143 -1.55879 -53.692 -14.4956 98.2041 -39.7755 -5.3165 4.22356 3.18055e-015 -7.95139e-016 1.98785e-016 0 0 -1.98785e-016 -4.81227 4.94771 0.967792 
33.8509 95.34 -29.0854 -2.07667 1.60744 10.3083 -0.122916 1.55041 0.751551 7.64945 -9.79284 2.48527 -0.632639 16.4722 -4.44328 3.14178 -7.49855 0.0597562 1.73867 -5.16073 -1.13887 -1.77059 -1.98315 -2.57048 1.45163 8.85376 -2.42876 -8.68559 -6.55641 -10.0595 2.97912 -10.098 3.48792 -0.266321 3.09907 1.50724 -0.266322 3.09907 1.50724 3.63666 -9.22133 -2.05917 -28.4572 10.1965 -0.278965 -51.1635 37.2333 4.91389 13.3998 -6.80294 -26.4892 7.50721 0.343757 -2.44007 9.54166e-015 -6.36111e-015 -0 6.36111e-015 -3.18056e-015 -0 12.1317 15.6032 23.1877 39.6437 -45.8711 10.6744 -56.6395 -11.7479 94.027 -38.6168 -6.69968 5.1233 8.82781e-032 3.18055e-015 -1.59028e-015 1.59028e-015 0 7.95139e-016 -4.38777 5.71908 0.0125756 
33.5407 95.3431 -29.0689 -2.00399 1.81986 12.7148 -0.234641 1.52515 1.00114 7.83535 -10.5266 1.4904 -0.976285 16.2726 -5.79476 3.13435 -7.13205 0.0476302 1.86674 -5.1534 -1.34176 -1.44203 -1.78055 -2.70886 1.61874 8.73694 -2.56969 -9.26783 -6.28544 -12.0501 2.90639 -9.94875 3.51097 -0.496169 3.04589 2.0096 -0.49617 3.04587 2.0096 3.60188 -10.5131 -3.31788 -28.8913 10.9769 0.654767 -50.0321 36.5893 4.30286 12.9491 -7.94022 -26.8188 7.60305 0.651239 -2.23894 6.36111e-015 -3.18055e-015 3.18055e-015 1.59028e-015 3.18056e-015 3.18055e-015 10.4237 17.2219 26.4905 37.3867 -39.1556 16.8892 -58.0439 -7.8241 85.9697 -36.8777 -6.37995 5.66115 4.77083e-015 9.54166e-015 -1.59028e-015 4.77083e-015 6.36111e-015 -3.97569e-015 -3.79685 6.95946 -1.33085 
33.0922 95.3428 -29.0298 -2.18187 1.97054 15.8704 -0.346636 1.51349 1.20459 8.32258 -11.5574 0.8142 -1.26793 16.2466 -8.12526 3.00389 -6.81969 0.0416893 1.93486 -5.08599 -1.53274 -0.731145 -1.32605 -2.9933 1.83664 8.19055 -2.68983 -9.98399 -5.73744 -14.4667 2.895 -9.84646 3.4065 -0.722163 3.01918 2.4238 -0.723518 3.01934 2.42165 4.18452 -11.4798 -5.10211 -29.5979 11.2357 1.52949 -48.9277 35.476 3.3884 12.3561 -8.54056 -27.111 7.3982 0.672568 -2.14481 -3.97569e-015 0 3.18055e-015 -4.77083e-015 -3.18056e-015 -0 8.01389 18.2808 29.5778 40.3385 -38.4571 21.5251 -65.2631 -5.98538 80.791 -35.3831 -3.28808 4.16624 6.36111e-015 -3.18055e-015 -3.97569e-015 6.36111e-015 0 -2.38542e-015 -3.5008 7.92433 -3.05652 
32.7332 95.2973 -29.0351 -2.0357 1.91428 18.8638 -0.507129 1.52382 1.10841 8.08254 -12.182 1.54032 -0.3079 16.0563 -11.9248 2.94852 -6.26342 0.0260121 2.02476 -5.27419 -1.66691 -0.392301 -1.16548 -3.14723 2.20765 8.6651 -2.86182 -10.6676 -5.60537 -16.6592 2.91828 -9.8216 3.26778 -1.03869 3.03799 2.22625 -1.03734 3.03798 2.22842 6.66627 -11.229 -6.89955 -31.3964 9.80123 2.91685 -48.65 33.6428 3.24558 11.9213 -7.09283 -27.9232 7.01345 0.720038 -2.02763 1.59028e-015 -4.77083e-015 -3.18055e-015 7.15625e-015 -6.36111e-015 -3.18055e-015 8.3363 18.3073 27.5301 52.0935 -47.7596 28.934 -60.3429 -7.99873 91.1899 -28.3464 -5.02275 3.01426 8.82781e-032 3.18055e-015 -1.59028e-015 3.18055e-015 6.36111e-015 -3.18055e-015 -5.23833 7.91665 -3.52029 
32.8028 95.2965 -29.1277 -1.07801 1.22545 19.3059 -0.621155 1.43195 0.632791 7.20753 -10.7828 3.40313 0.692733 15.1624 -14.0417 2.64544 -5.86435 0.0119365 1.99371 -5.22883 -1.67167 -1.21731 -0.791407 -3.66432 2.51282 10.1958 -2.64829 -10.9588 -6.21134 -16.4597 2.98223 -9.92619 3.21816 -1.2744 2.857 1.28702 -1.2677 2.85713 1.28518 9.15477 -7.33686 -7.66602 -30.9879 5.73564 1.82206 -52.5397 31.1304 6.57786 11.9122 -5.52226 -28.2165 7.14755 0.743686 -1.98109 -3.97569e-015 3.18055e-015 3.18055e-015 -3.97569e-015 3.18056e-015 3.18055e-015 7.76346 14.4429 26.6209 41.0263 -39.8268 26.331 -58.4344 -6.91631 87.1791 -31.0973 -3.32074 3.03121 4.41391e-032 3.18055e-015 -7.95139e-016 -1.59028e-015 -3.18056e-015 -1.59028e-015 -8.06927 6.75272 -2.96969 
32.8218 95.4037 -29.2089 -0.172941 -0.0234951 15.2712 -0.353624 1.48753 0.354034 7.04691 -7.82208 7.02403 0.503306 13.9995 -13.0971 1.19051 -6.51705 0.0229521 1.59528 -4.35242 -1.40959 -2.17517 -0.704453 -2.41957 2.08402 11.5538 -2.21031 -10.6977 -6.74815 -14.2534 3.02063 -10.0303 3.2453 -0.716802 2.97282 0.717636 -0.716803 2.97283 0.717645 5.18841 -5.74312 -5.71429 -27.7143 5.00288 2.26907 -54.8906 34.1086 8.64585 12.5869 -5.38112 -26.7096 5.87624 0.8016 -1.86803 -1.59028e-015 3.18055e-015 -3.18055e-015 2.38542e-015 0 -3.18055e-015 5.74902 11.4407 27.9089 36.9045 -27.5868 28.0686 -60.6072 -2.76608 75.084 -36.9382 -6.74641 5.72199 -3.18055e-015 -3.18055e-015 7.95139e-016 -1.59028e-015 0 -0 -5.59359 8.00227 -2.57322 
